<!--?xml version="1.0" encoding="utf-8"?-->
<!-- Generator: Adobe Illustrator 15.1.0, SVG Export Plug-In . SVG Version: 6.00 Build 0)  -->

<svg version="1.1" id="_x32_" xmlns="http://www.w3.org/2000/svg" xmlns:xlink="http://www.w3.org/1999/xlink" x="0px" y="0px" width="512px" height="512px" viewBox="0 0 512 512" style="width: 256px; height: 256px; opacity: 1;" xml:space="preserve">
<style type="text/css">

	.st0{fill:#4B4B4B;}

</style>
<g>
	<path class="st0" d="M422.906,442.344c-1.703-6.359-4.094-12.063-7.063-17.141c-5.188-8.922-12.063-15.844-19.641-21.359
		c-5.688-4.125-11.781-7.469-17.938-10.375c-9.266-4.328-18.75-7.656-27.484-10.891s-16.734-6.391-22.938-10.047
		c-2.281-1.344-4.328-2.75-6.094-4.219c-2.656-2.219-4.719-4.547-6.203-7.188c-1.5-2.641-2.484-5.594-2.891-9.313
		c-0.266-2.625-0.391-5.109-0.391-7.469c0-7,1.031-13.063,2.344-19.266c3.922-4.406,7.5-9.656,10.875-15.953
		c3.406-6.313,6.625-13.719,9.828-22.469c2.063-0.922,4.141-2.047,6.172-3.406c4.609-3.125,9-7.438,12.656-13.219
		c3.656-5.766,6.578-12.922,8.578-21.781c0.563-2.469,0.828-4.906,0.828-7.281c0-5.031-1.172-9.844-3.172-14.109
		c-1.391-2.953-3.156-5.688-5.203-8.156c1.063-3.859,2.328-9.047,3.453-15.125c1.563-8.453,2.859-18.578,2.859-29.25
		c0-6.875-0.531-13.969-1.938-20.984c-1.047-5.25-2.594-10.469-4.766-15.484c-3.25-7.516-8-14.578-14.594-20.406
		c-6.094-5.422-13.75-9.719-22.969-12.484c-1.344-1.594-2.703-3.109-4.078-4.547c0.406-2.578,0.625-5.234,0.625-7.922
		c0-16.031-7.406-30.313-18.969-39.688c2.609-4.984,4.094-10.672,4.094-16.719C298.891,16.156,282.75,0,262.797,0
		c-19.938,0-36.109,16.156-36.109,36.094c0,6.047,1.5,11.734,4.125,16.719c-10.797,8.719-17.953,21.75-18.875,36.453
		c-0.391,0.188-0.813,0.391-1.234,0.609c-4.422,2.25-10.125,5.531-16.234,10.094c-9.141,6.813-19.234,16.453-27.125,29.5
		c-3.922,6.531-7.297,13.906-9.656,22.172c-2.375,8.234-3.766,17.359-3.766,27.313c0,6.219,0.547,12.766,1.703,19.641
		c0,0.484,0.016,0.938,0.047,1.391c0.047,0.859,0.141,1.766,0.234,2.688c0.125,1.359,0.313,2.781,0.438,3.969
		c0.047,0.594,0.094,1.125,0.141,1.547c0.016,0.188,0.016,0.375,0.031,0.5l0.016,0.125v0.047v0.797l1.672,7.469
		c-2.406,2.641-4.516,5.594-6.141,8.859c-2.25,4.5-3.609,9.594-3.609,14.984c0,2.375,0.266,4.844,0.828,7.281l0,0
		c1.344,5.906,3.078,11.047,5.172,15.547c3.156,6.734,7.141,12,11.547,15.938c3.438,3.047,7.078,5.297,10.703,6.938
		c3.203,8.734,6.406,16.125,9.813,22.422c3.375,6.313,6.953,11.563,10.875,15.969c1.313,6.203,2.344,12.281,2.344,19.281
		c0,2.359-0.125,4.844-0.391,7.5v-0.031c-0.281,2.563-0.828,4.766-1.641,6.75c-1.203,2.953-2.953,5.469-5.344,7.859
		c-2.391,2.359-5.438,4.563-9.047,6.609c-3.672,2.063-7.906,4-12.516,5.875c-8.078,3.281-17.297,6.359-26.625,10.078
		c-7.016,2.797-14.094,5.969-20.859,9.953c-5.063,3-9.953,6.438-14.438,10.563c-6.719,6.156-12.516,13.813-16.531,23.313
		s-6.234,20.734-6.234,34.016c0,1.859,0.391,3.672,1.047,5.297c0.594,1.563,1.422,2.969,2.406,4.328
		c1.844,2.5,4.219,4.75,7.141,6.922c5.125,3.781,11.938,7.313,20.75,10.641c13.188,4.984,30.891,9.453,53.781,12.703
		S222.172,512,256,512c29.313,0,54.313-1.531,75.344-4.047c15.781-1.891,29.344-4.344,40.859-7.156
		c8.625-2.109,16.109-4.422,22.531-6.859c4.813-1.813,9.047-3.719,12.703-5.672c2.75-1.484,5.188-2.969,7.344-4.516
		c3.219-2.328,5.828-4.75,7.781-7.469c0.969-1.375,1.797-2.813,2.391-4.406c0.578-1.563,0.938-3.281,0.938-5.047
		C425.891,457.75,424.859,449.625,422.906,442.344z M202.281,177.297c38.234,8.484,105.047-32.156,105.047-32.156
		s0.813,18.547,13.547,35.547c5.109,6.797,9.266,17.438,12.391,27.5c-0.703-1.844-2.688-2.531-5.828-2.938
		c-6.563-0.875-16.297-1.438-27.25-0.906c-32.578,1.578-30.156,4.531-42.938,4.531s-10.375-2.953-42.938-4.531
		c-10.969-0.531-20.688,0.031-27.266,0.906c-1.156,0.156-2.125,0.375-2.969,0.625C188.109,200.922,194.141,193.141,202.281,177.297z
		 M326.953,228.375c-0.016,0.188-0.156,18.844-12.844,25.234c-4.328,2.188-9.734,3.375-15.234,3.391
		c-5.813,0-11.141-1.313-15.375-3.813c-4.688-2.75-7.844-6.828-9.406-12.094c-0.344-1.219-0.688-2.453-1.016-3.656
		c-1.016-3.625-3.719-13.719,2.016-18.156c3.703-2.891,15.188-4.719,26.188-4.719c10,0,20.188,1.375,23.172,4.484
		C326.422,221.094,327.188,224.781,326.953,228.375z M241.422,237.438c-0.328,1.203-0.672,2.438-1.031,3.656
		c-1.563,5.266-4.703,9.344-9.391,12.094c-4.25,2.5-9.563,3.813-15.375,3.813c-5.5-0.016-10.906-1.203-15.234-3.391
		c-12.703-6.391-12.844-25.047-12.844-25.234c-0.25-3.594,0.516-7.281,2.469-9.328c3-3.109,13.203-4.484,23.203-4.484
		c11,0,22.469,1.828,26.188,4.719C245.141,223.719,242.438,233.813,241.422,237.438z M241.203,448.719l-50-63.906
		c2.594-1.531,5.078-3.188,7.406-5.031c2.484-1.984,4.766-4.219,6.797-6.719l36.359,16.875l-7.781,12.922l12.031,12.75
		L241.203,448.719z M210.547,364.531c1.469-3.438,2.453-7.188,2.875-11.234v-0.016c0.328-3.125,0.469-6.094,0.469-8.938
		c0-9.25-1.531-17.078-3.078-24.141l-0.406-1.922l-1.359-1.438c-3.438-3.625-6.734-8.25-10.063-14.438
		c-3.313-6.156-6.609-13.875-10.016-23.453l-1.109-3.141l-3.125-1.125c-2.172-0.813-4.266-1.844-6.313-3.188
		c-3.031-2.063-5.938-4.844-8.578-9.031c-2.656-4.172-5.047-9.781-6.75-17.344l0,0c-0.328-1.438-0.469-2.813-0.469-4.156
		c0-3.031,0.734-5.906,2.109-8.672c1.141-2.266,2.734-4.422,4.656-6.391c3.25,4.906,5.938,8.813,6.922,9.781
		c1.875,1.891,2.781,0,2.922-3.563c1.109,7.75,4.75,20.656,16.734,27.031c17.141,9.094,42.703,5.688,51.391-14.563
		c3.922-9.156,3.984-18.078,9.891-18.078s5.969,8.922,9.891,18.078c8.688,20.25,34.25,23.656,51.375,14.563
		s17.25-31.625,17.25-33.219c0-0.797,0.813-1.344,1.906-1.484c1.422,6.047,2.188,10.172,2.188,10.172s1.641-3.125,4.094-7.281
		c1.469,1.719,2.688,3.563,3.578,5.484c1.203,2.609,1.844,5.297,1.844,8.141c0,1.328-0.141,2.719-0.453,4.156
		c-1.141,5.031-2.594,9.219-4.203,12.672c-2.438,5.172-5.234,8.734-8.141,11.359c-2.938,2.625-6.063,4.328-9.297,5.516l-3.125,1.141
		l-1.109,3.141c-3.406,9.578-6.703,17.297-10.031,23.469s-6.625,10.813-10.063,14.453l-1.344,1.422l-0.422,1.922
		c-1.547,7.063-3.078,14.875-3.078,24.125c0,2.844,0.141,5.813,0.469,8.953c0.391,3.672,1.219,7.109,2.484,10.297
		c0.047,0.141,0.125,0.281,0.172,0.438l-43.016,22.609L210.547,364.531z M274.266,451.031l-5.141-35.422l12.016-12.75l-7.781-12.984
		l32.891-17.281c0.906,1.172,1.875,2.281,2.891,3.344c3.266,3.344,7.031,6.109,11.063,8.531L274.266,451.031z"></path>
</g>
</svg>
